inDegrees=yes
name=ik_Shooting_orientations
DataType=double
version=3
OpenSimVersion=4.3-2021-08-27-4bc7ad9
endheader
time	pelvis_tilt	pelvis_list	pelvis_rotation	pelvis_tx	pelvis_ty	pelvis_tz	hip_flexion_r	hip_adduction_r	hip_rotation_r	knee_angle_r	knee_angle_r_beta	ankle_angle_r	subtalar_angle_r	mtp_angle_r	hip_flexion_l	hip_adduction_l	hip_rotation_l	knee_angle_l	knee_angle_l_beta	ankle_angle_l	subtalar_angle_l	mtp_angle_l	lumbar_extension	lumbar_bending	lumbar_rotation	arm_flex_r	arm_add_r	arm_rot_r	elbow_flex_r	pro_sup_r	wrist_flex_r	wrist_dev_r	arm_flex_l	arm_add_l	arm_rot_l	elbow_flex_l	pro_sup_l	wrist_flex_l	wrist_dev_l
12.17	5.713419883194414	5.152877950874648	61.89983815606359	0	0.9399999999999999	0	45.00000011886165	-9.999999988573334	0	60.00014061962227	1.047200005471999	-4.999999851047217	0	0	45.00000011886165	-9.999999988573334	0	60.00014061962227	1.047200005471999	-4.999999851047217	0	0	-5.789217083904793	-4.019910400549015	-10.21328075807511	-27.69069074739851	-8.482894892235317	-89.98961848621487	0.001227632450464342	45.00000025534056	0	0	0	-14.99999998978416	0	75.00017584614763	45.00000025534056	0	0
12.18	5.702014951414687	5.137501432081617	61.89155318592789	0	0.9399999999999999	0	45.00000011886165	-9.999999988573334	0	60.00014061962227	1.047200005471999	-4.999999851047217	0	0	45.00000011886165	-9.999999988573334	0	60.00014061962227	1.047200005471999	-4.999999851047217	0	0	-5.275473164253415	1.353283831000359	0.1216130526681431	73.26170931145073	-19.47057617305357	2.00462252480219	51.01096963509663	45.00000025534056	0	0	0	-14.99999998976855	0	75.00017584614763	45.00000025534056	0	0
12.19	5.714934241216288	5.129816820860042	61.8759134042757	0	0.9399999999999999	0	45.00000011886165	-9.999999988573334	0	60.00014061962227	1.047200005471999	-4.999999851047217	0	0	45.00000011886165	-9.999999988573334	0	60.00014061962227	1.047200005471999	-4.999999851047217	0	0	-5.281396941295903	1.370110519198354	0.1174819733715811	69.94811754918484	-22.23052524742707	26.40538039680099	110.4281762571473	45.00000025534056	0	0	0	-14.9999999897635	0	75.00017584614763	45.00000025534056	0	0
12.2	5.701273995715852	5.121508994830638	61.87755251745691	0	0.9399999999999999	0	45.00000011886165	-9.999999988573334	0	60.00014061962227	1.047200005471999	-4.999999851047217	0	0	45.00000011886165	-9.999999988573334	0	60.00014061962227	1.047200005471999	-4.999999851047217	0	0	5.311306695637507	-17.95972503501247	1.655943982820173	89.98832992614958	-62.22492490620809	30.0569267135862	149.9955105098716	45.00000025534056	0	0	0	-14.99999998976189	0	75.00017584614763	45.00000025534056	0	0
12.21	5.70317885816251	5.113081989310766	61.87285990051141	0	0.9399999999999999	0	45.00000011886165	-9.999999988573334	0	60.00014061962227	1.047200005471999	-4.999999851047217	0	0	45.00000011886165	-9.999999988573334	0	60.00014061962227	1.047200005471999	-4.999999851047217	0	0	-2.588129290536629	-25.82753343781597	0.6973639588139194	89.95137710639726	-84.84892449966706	-19.33614005370912	149.9979664890639	45.00000025534056	0	0	0	-14.99999998975882	0	75.00017584614763	45.00000025534056	0	0
12.22	5.690752688991039	5.111146501938008	61.86210804883399	0	0.9399999999999999	0	45.00000011886165	-9.999999988573334	0	60.00014061962227	1.047200005471999	-4.999999851047217	0	0	45.00000011886165	-9.999999988573334	0	60.00014061962227	1.047200005471999	-4.999999851047217	0	0	-3.004973765819679	-6.815796069404797	0.2094857611661285	89.9465578526903	-74.70816793478237	18.81801423420278	149.9253253469136	45.00000025534056	0	0	0	-14.99999998975458	0	75.00017584614763	45.00000025534056	0	0
12.23	5.694519979465689	5.116384900037099	61.85734181787543	0	0.9399999999999999	0	45.00000011886165	-9.999999988573334	0	60.00014061962227	1.047200005471999	-4.999999851047217	0	0	45.00000011886165	-9.999999988573334	0	60.00014061962227	1.047200005471999	-4.999999851047217	0	0	-5.259586778311649	1.342798734542235	0.05578075191375022	79.89566360500083	-19.07870470672106	1.148425895791313	149.9790107501755	45.00000025534056	0	0	0	-14.99999998974913	0	75.00017584614763	45.00000025534056	0	0
12.24	5.691616200013898	5.105098809561174	61.86709512718703	0	0.9399999999999999	0	45.00000011886165	-9.999999988573334	0	60.00014061962227	1.047200005471999	-4.999999851047217	0	0	45.00000011886165	-9.999999988573334	0	60.00014061962227	1.047200005471999	-4.999999851047217	0	0	-5.274309561182736	1.341726722178485	0.04441298062013167	62.51602424133314	11.34637623244857	4.090875759814277	108.816337408619	45.00000025534056	0	0	0	-14.99999998974166	0	75.00017584614763	45.00000025534056	0	0
